<svg width="19" height="19" viewBox="0 0 19 19" version="1.1" xmlns="http://www.w3.org/2000/svg" xmlns:xlink="http://www.w3.org/1999/xlink">
    <g id="Canvas" transform="translate(869 8515)">
        <g id="Group 3">
            <g id="Page 1">
                <g id="Oval">
                    <use xlink:href="#path0_fill" transform="translate(-869 -8515)" fill="#17D3CA"/>
                </g>
                <g id="Fill 1">
                    <use xlink:href="#path1_fill" transform="translate(-864 -8509)" fill="#FFFFFF"/>
                    <use xlink:href="#path2_stroke" transform="translate(-864 -8509)" fill="#FFFFFF"/>
                </g>
            </g>
        </g>
    </g>
    <defs>
        <path id="path0_fill" fill-rule="evenodd" d="M 9.5 19C 14.7467 19 19 14.7467 19 9.5C 19 4.25329 14.7467 0 9.5 0C 4.25329 0 0 4.25329 0 9.5C 0 14.7467 4.25329 19 9.5 19Z"/>
        <path id="path1_fill" fill-rule="evenodd" d="M 0.626823 3.55529C 0.557796 3.48744 0.46527 3.44978 0.367164 3.44978C 0.164783 3.44978 0 3.61106 0 3.80913C 0 3.90515 0.0381851 3.99542 0.107506 4.06355L 3.04482 6.93808C 3.11443 7.00593 3.20637 7.0433 3.30448 7.0433C 3.37615 7.0433 3.44488 7.02318 3.50363 6.98494L 3.51038 6.99357L 8.40307 1.97701L 8.40424 1.97902L 9.01403 1.3526L 9.01168 1.3526L 9.73866 0.607449L 9.78742 0.555702L 9.78243 0.551103C 9.82003 0.493894 9.84 0.427773 9.84 0.359352C 9.84 0.161277 9.67551 0 9.47284 0C 9.40263 0 9.33537 0.0195488 9.2775 0.0560589L 9.27104 0.0462846L 8.51557 0.820473L 8.51439 0.818173L 3.2986 6.16993L 0.626823 3.55529Z"/>
        <path id="path2_stroke" d="M 0.626823 3.55529L -0.0741575 4.26847L -0.0726011 4.26999L 0.626823 3.55529ZM 0.107506 4.06355L -0.593468 4.77674L -0.591922 4.77826L 0.107506 4.06355ZM 3.04482 6.93808L 2.34539 7.65279L 2.34687 7.65423L 3.04482 6.93808ZM 3.50363 6.98494L 4.29086 6.36829L 2.95814 6.14683L 3.50363 6.98494ZM 3.51038 6.99357L 2.72315 7.61023L 4.22627 7.69178L 3.51038 6.99357ZM 8.40307 1.97701L 9.26665 1.47281L 7.68718 1.2788L 8.40307 1.97701ZM 8.40424 1.97902L 7.54066 2.48323L 9.1208 2.67655L 8.40424 1.97902ZM 9.01403 1.3526L 9.73059 2.05013L 9.01403 0.352602L 9.01403 1.3526ZM 9.01168 1.3526L 8.2959 0.654274L 9.01168 2.3526L 9.01168 1.3526ZM 9.73866 0.607449L 10.4544 1.30578L 10.4665 1.29324L 9.73866 0.607449ZM 9.78742 0.555702L 10.5152 1.24149L 10.4649 -0.179808L 9.78742 0.555702ZM 9.78243 0.551103L 8.94674 0.00189184L 9.10492 1.28661L 9.78243 0.551103ZM 9.2775 0.0560589L 8.44333 0.607555L 9.81112 0.901787L 9.2775 0.0560589ZM 9.27104 0.0462846L 10.1052 -0.505212L 8.55534 -0.65212L 9.27104 0.0462846ZM 8.51557 0.820473L 7.62504 1.27542L 9.23127 1.51888L 8.51557 0.820473ZM 8.51439 0.818173L 9.40491 0.363231L 7.79824 0.120222L 8.51439 0.818173ZM 3.2986 6.16993L 2.59918 6.88464L 4.01475 6.86788L 3.2986 6.16993ZM 1.3278 2.8421C 1.06942 2.58815 0.724204 2.44978 0.367164 2.44978L 0.367164 4.44978C 0.206337 4.44978 0.0461692 4.38673 -0.0741558 4.26847L 1.3278 2.8421ZM 0.367164 2.44978C -0.367118 2.44978 -1 3.03861 -1 3.80913L 1 3.80913C 1 4.18351 0.696684 4.44978 0.367164 4.44978L 0.367164 2.44978ZM -1 3.80913C -1 4.17751 -0.851094 4.52353 -0.593466 4.77674L 0.808478 3.35037C 0.927464 3.46731 1 3.63279 1 3.80913L -1 3.80913ZM -0.591922 4.77826L 2.34539 7.65279L 3.74425 6.22338L 0.806933 3.34885L -0.591922 4.77826ZM 2.34687 7.65423C 2.60424 7.90506 2.94703 8.0433 3.30448 8.0433L 3.30448 6.0433C 3.46571 6.0433 3.62463 6.1068 3.74277 6.22194L 2.34687 7.65423ZM 3.30448 8.0433C 3.51808 8.03318 3.86257 7.93177 4.04912 7.82306L 2.95814 6.14683C 3.06575 6.07678 3.18736 6.0433 3.30448 6.0433L 3.30448 8.0433ZM 2.7164 7.6016L 2.72315 7.61023L 4.29761 6.37691L 4.29086 6.36829L 2.7164 7.6016ZM 4.22627 7.69178L 9.11896 2.67522L 7.68718 1.2788L 2.79449 6.29536L 4.22627 7.69178ZM 7.53948 2.48122L 7.54066 2.48323L 9.26783 1.47482L 9.26665 1.47281L 7.53948 2.48122ZM 9.1208 2.67655L 9.73059 2.05013L 8.29747 0.655074L 7.68768 1.2815L 9.1208 2.67655ZM 9.01403 0.352602L 9.01168 0.352602L 9.01168 2.3526L 9.01403 2.3526L 9.01403 0.352602ZM 9.72746 2.05093L 10.4544 1.30578L 9.02288 -0.0908782L 8.2959 0.654274L 9.72746 2.05093ZM 10.4665 1.29324L 10.5152 1.24149L 9.05962 -0.130085L 9.01086 -0.0783382L 10.4665 1.29324ZM 10.4649 -0.179808L 10.4599 -0.184408L 9.10492 1.28661L 9.10991 1.29121L 10.4649 -0.179808ZM 10.6181 1.10031C 10.7259 0.917472 10.8293 0.57393 10.84 0.359352L 8.84 0.359352C 8.84 0.230644 8.87822 0.106161 8.94674 0.00189184L 10.6181 1.10031ZM 10.84 0.359352C 10.84 -0.410659 10.2079 -1 9.47284 -1L 9.47284 1C 9.14308 1 8.84 0.733214 8.84 0.359352L 10.84 0.359352ZM 9.47284 -1C 9.26169 -0.990017 8.92501 -0.892373 8.74389 -0.789669L 9.81112 0.901787C 9.70797 0.966868 9.58999 1 9.47284 1L 9.47284 -1ZM 10.1117 -0.495437L 10.1052 -0.505212L 8.43687 0.597781L 8.44333 0.607555L 10.1117 -0.495437ZM 8.55534 -0.65212L 7.79986 0.122068L 9.23127 1.51888L 9.98675 0.74469L 8.55534 -0.65212ZM 9.40609 0.365531L 9.40491 0.363231L 7.62387 1.27312L 7.62504 1.27542L 9.40609 0.365531ZM 7.79824 0.120222L 2.58246 5.47198L 4.01475 6.86788L 9.23054 1.51612L 7.79824 0.120222ZM 3.99803 5.45523L 1.32625 2.84058L -0.0726011 4.26999L 2.59918 6.88464L 3.99803 5.45523Z"/>
    </defs>
</svg>
