<svg width="16" height="16" viewBox="0 0 16 16" version="1.1" xmlns="http://www.w3.org/2000/svg"
     xmlns:xlink="http://www.w3.org/1999/xlink">
    <title>Icon : warnning</title>
    <desc>Created using Figma</desc>
    <g id="Canvas" transform="translate(1738 388)">
        <g id="Icon : warnning">
            <g id="Oval">
                <mask id="mask0_outline_ins">
                    <use xlink:href="#path0_fill" fill="white" transform="translate(-1738 -388)"/>
                </mask>
                <g mask="url(#mask0_outline_ins)">
                    <use xlink:href="#path1_stroke_2x" transform="translate(-1738 -388)" fill="#FE0250"/>
                </g>
            </g>
            <g id="!">
                <use xlink:href="#path2_fill" transform="translate(-1730.89 -383.594)" fill="#FE0250"/>
            </g>
        </g>
    </g>
    <defs>
        <path id="path0_fill" fill-rule="evenodd"
              d="M 8 16C 12.4183 16 16 12.4183 16 8C 16 3.58172 12.4183 0 8 0C 3.58172 0 0 3.58172 0 8C 0 12.4183 3.58172 16 8 16Z"/>
        <path id="path1_stroke_2x"
              d="M 8 17C 12.9706 17 17 12.9706 17 8L 15 8C 15 11.866 11.866 15 8 15L 8 17ZM 17 8C 17 3.02944 12.9706 -1 8 -1L 8 1C 11.866 1 15 4.13401 15 8L 17 8ZM 8 -1C 3.02944 -1 -1 3.02944 -1 8L 1 8C 1 4.13401 4.13401 1 8 1L 8 -1ZM -1 8C -1 12.9706 3.02944 17 8 17L 8 15C 4.13401 15 1 11.866 1 8L -1 8Z"/>
        <path id="path2_fill" fill-rule="evenodd"
              d="M 1.34569 0L 1.34569 2.84028C 1.34569 3.14152 1.33079 3.43696 1.301 3.72662C 1.2712 4.01628 1.23148 4.32331 1.18182 4.64772L 0.352583 4.64772C 0.302927 4.32331 0.263204 4.01628 0.23341 3.72662C 0.203617 3.43696 0.188721 3.14152 0.188721 2.84028L 0.188721 0L 1.34569 0ZM 0 6.50483C 0 6.40221 0.0190343 6.30455 0.0571034 6.21186C 0.0951726 6.11917 0.148138 6.03973 0.216 5.97352C 0.283862 5.90731 0.364137 5.85435 0.456828 5.81462C 0.549518 5.7749 0.648827 5.75504 0.754759 5.75504C 0.85738 5.75504 0.955034 5.7749 1.04772 5.81462C 1.14041 5.85435 1.21986 5.90731 1.28607 5.97352C 1.35228 6.03973 1.40524 6.11917 1.44497 6.21186C 1.48469 6.30455 1.50455 6.40221 1.50455 6.50483C 1.50455 6.61076 1.48469 6.70924 1.44497 6.80028C 1.40524 6.89131 1.35228 6.96993 1.28607 7.03614C 1.21986 7.10235 1.14041 7.15448 1.04772 7.19255C 0.955034 7.23062 0.85738 7.24966 0.754759 7.24966C 0.648827 7.24966 0.549518 7.23062 0.456828 7.19255C 0.364137 7.15448 0.283862 7.10235 0.216 7.03614C 0.148138 6.96993 0.0951726 6.89131 0.0571034 6.80028C 0.0190343 6.70924 0 6.61076 0 6.50483Z"/>
    </defs>
</svg>
