<?xml version="1.0" encoding="UTF-8" standalone="no"?>
<svg width="151px" height="143px" viewBox="0 0 151 143" version="1.1" xmlns="http://www.w3.org/2000/svg" xmlns:xlink="http://www.w3.org/1999/xlink">
    <!-- Generator: Sketch 42 (36781) - http://www.bohemiancoding.com/sketch -->
    <title>Group 11</title>
    <desc>Created with Sketch.</desc>
    <defs>
        <polygon id="path-1" points="34.1922813 0.147028702 34.1922813 35.1962679 0.0685351641 35.1962679 0.0685351641 0.147028702 34.1922813 0.147028702"></polygon>
        <polygon id="path-3" points="0.17665101 0.131453303 22.6082523 0.131453303 22.6082523 20.9076765 0.17665101 20.9076765 0.17665101 0.131453303"></polygon>
    </defs>
    <g id="Wireframe" stroke="none" stroke-width="1" fill="none" fill-rule="evenodd">
        <g id="Lending_02" transform="translate(-818.000000, -501.000000)">
            <g id="Group-11" transform="translate(785.000000, 485.000000)">
                <g id="Page-1" transform="translate(77.000000, 27.000000)">
                    <path d="M13.1053912,72.1167554 C14.5345768,70.6256118 15.9614689,69.1369558 17.1926556,67.8524638 C19.5422688,68.8482178 21.6675087,69.8520082 23.8670938,70.6502952 C25.8054196,71.3536756 25.8421144,71.2522633 25.8421144,73.3239444 L25.8421144,77.3857941 L34.4457047,77.3857941 L34.4457047,71.4998624 C37.4055599,70.2664592 40.2021998,69.1009831 43.266788,67.8239535 C44.4832585,69.0801267 45.9149287,70.5582588 47.2248562,71.9106779 C49.2574035,69.8787964 51.2496248,67.8872884 53.3219248,65.8156073 C52.1293442,64.6453476 50.8742677,63.3809467 49.5781007,62.1601722 C49.1299274,61.7378761 49.0567289,61.418523 49.4076228,60.8756802 C50.7844419,58.7452565 51.7476801,56.4242542 52.2914128,53.9482633 C52.4387653,53.2774114 52.6927621,53.0797531 53.3635887,53.0981221 C55.1364057,53.1467235 56.9113251,53.1145777 58.735553,53.1145777 L58.735553,44.4985503 C56.8528427,44.4985503 55.040273,44.480564 53.2284678,44.5096483 C52.6889397,44.5182588 52.4569216,44.3648009 52.3325034,43.80799 C51.7656453,41.2721084 50.8213278,38.8791608 49.3944357,36.6987964 C49.0733562,36.2083818 49.0918948,35.8972565 49.5266898,35.4841449 C50.8406308,34.2356255 52.111379,32.9417576 53.3775404,31.6869239 C51.3069604,29.6362907 49.3028898,27.6512884 47.2227539,25.5910879 C45.8552997,27.0083727 44.424394,28.4914797 42.9841235,29.984154 C40.5832904,28.4114979 38.1430869,27.2622861 35.4693364,26.6960993 C34.668358,26.5265686 34.3923826,26.1972656 34.4250639,25.3691289 C34.4923376,23.6619581 34.4453224,21.9503863 34.4453224,20.2066688 L25.8457456,20.2066688 C25.8457456,21.9733476 25.8067574,23.6877895 25.8635197,25.3991699 C25.8889384,26.1628237 25.6844414,26.4992064 24.9010459,26.7006916 C23.5217423,27.0550606 22.1556259,27.5091198 20.8430227,28.0617212 C19.65522,28.5618943 18.5461582,29.2495845 17.1809973,29.9717166 C15.797298,28.5182679 14.3790062,27.0284638 13.1204895,25.706277 C11.0472339,27.7322269 9.03284289,29.7005822 6.9433422,31.7424137 C8.37271892,33.1457303 9.82426541,34.5708601 11.0919557,35.8153613 C9.87395627,38.7567007 8.71310131,41.5606551 7.4790479,44.5416027 L1.57921378,44.5416027 L1.57921378,53.1191699 L7.50083543,53.1191699 C8.73087535,56.0869148 9.88198325,58.8636984 11.1139344,61.8356528 C9.84624406,63.0864683 8.37921695,64.5339854 6.92824382,65.9654296 C8.97206715,68.0007554 10.9562614,69.9765731 13.1053912,72.1167554 M60.3367454,42.9069513 C60.358533,43.2085093 60.3879652,43.4274068 60.3881564,43.6464957 C60.3910231,47.277056 60.3902587,50.9076164 60.3902587,54.7017759 C59.10747,54.7017759 57.8818258,54.6916346 56.6565638,54.70522 C55.7369007,54.7153613 54.6127405,54.4448009 53.9587323,54.8757075 C53.3660733,55.2664319 53.2963149,56.4407098 52.9767645,57.2619581 C52.7114917,57.9437166 52.4406765,58.6250925 52.1314465,59.2875253 C51.8220253,59.9501494 51.4619577,60.5890469 51.050288,61.3802542 C52.6029363,62.8570469 54.1875014,64.3638806 55.7179799,65.8196255 C52.8253985,68.7186779 50.0851386,71.4650378 47.266329,74.2900401 C45.8159292,72.7883727 44.3009313,71.2199262 42.9210543,69.7913522 C40.5274838,70.7888282 38.3630646,71.6906323 36.0755649,72.6437166 L36.0755649,79.0309695 L24.2940529,79.0309695 L24.2940529,72.6576847 C22.0107579,71.7093841 19.8476765,70.8108328 17.5855956,69.8713339 C16.1722729,71.3045002 14.6395009,72.8585959 13.1388369,74.3801631 C10.2581048,71.4776665 7.50809794,68.7068146 4.70113766,65.8787508 C5.92850192,64.6596984 7.21549522,63.3348328 8.55867741,62.0696665 C9.10126338,61.5585868 9.19758721,61.1975207 8.83274162,60.4686916 C8.05278622,58.910769 7.38883987,57.2828146 6.82847986,55.6318989 C6.56989627,54.8699672 6.24021652,54.6627417 5.49179571,54.6908692 C3.99705639,54.7471244 2.49887694,54.7128738 1.00222644,54.7094296 C0.690320727,54.7088556 0.378606135,54.6799626 0,54.6608282 L0,42.8619854 C1.8400908,42.8619854 3.64807365,42.8275435 5.45376309,42.8780583 C6.22913163,42.8996802 6.58327457,42.7060401 6.8575299,41.8956984 C7.43642843,40.1856574 8.19230287,38.5318715 8.94454605,36.8866961 C9.16758157,36.3989604 9.17656415,36.1291654 8.77483265,35.7481995 C7.36590563,34.4120446 5.99730465,33.03322 4.6718965,31.7280629 C7.48975055,28.8942588 10.2433887,26.1251289 13.0545536,23.2982132 C14.5057178,24.812318 15.9991193,26.3702405 17.378423,27.8093385 C19.7794471,26.8097576 21.9660361,25.8995344 24.2751322,24.9382223 L24.2751322,18.5586232 L36.0862676,18.5586232 C36.0862676,20.4644091 36.1227712,22.3353704 36.0681113,24.2036528 C36.0465149,24.9437713 36.299556,25.1892656 36.9959925,25.4307417 C38.911193,26.0947052 40.774218,26.9098305 42.8019874,27.7230424 C44.1879802,26.3053749 45.712534,24.7459216 47.1973351,23.2272246 C50.0589554,26.0992975 52.7953928,28.8458487 55.6293008,31.6903681 C54.422004,32.8939216 53.177248,34.1994615 51.8566178,35.4229148 C51.2205748,36.0120629 51.1282645,36.433785 51.5533124,37.2590515 C52.335179,38.7775572 52.9444654,40.3949877 53.5061633,42.0128009 C53.7387547,42.6832702 54.0198903,42.8966187 54.7027574,42.8761449 C56.2617126,42.8292656 57.8229612,42.8614114 59.3834454,42.8665777 C59.6943955,42.8677257 60.0051545,42.8922178 60.3367454,42.9069513" id="Fill-1" fill="#C4CDD1"></path>
                    <g id="Group-5" transform="translate(51.028692, 9.244401)">
                        <mask id="mask-2" fill="white">
                            <use xlink:href="#path-1"></use>
                        </mask>
                        <g id="Clip-4"></g>
                        <path d="M14.6205037,33.5440128 L18.7777176,33.5440128 L18.7777176,30.3298169 C20.6025189,29.576113 22.296595,28.8761768 24.2173379,28.0826733 C24.7922229,28.7726597 25.5200029,29.6463362 26.1858605,30.44558 C27.3474799,29.2781904 28.3011622,28.3201312 29.3830851,27.2331062 C28.8135514,26.7046141 28.1520896,26.0638032 27.4592843,25.4591563 C27.0688288,25.1181813 27.1127861,24.8380538 27.3287503,24.392031 C28.0314937,22.941261 28.6597008,21.4541358 29.4004769,19.7932702 L32.5977016,19.7932702 L32.5977016,15.6051335 L29.4602971,15.6051335 C28.6572163,13.8537622 27.9173958,12.2858897 27.2345287,10.6933339 C27.1483342,10.4922314 27.2826906,10.0896437 27.4510662,9.90461412 C28.0700997,9.22419499 28.7466599,8.59601276 29.3870986,7.96228155 C28.3560132,6.97590342 27.3809257,6.04291025 26.3125721,5.02094214 C25.6750002,5.74594442 24.9428245,6.578482 24.3702329,7.22981686 C22.4636327,6.51419043 20.8079715,5.90954351 19.1721866,5.2553385 C18.9923439,5.18339317 18.8323775,4.83189431 18.8224394,4.60323827 C18.7828778,3.68689203 18.8060032,2.76786697 18.8060032,1.7826369 L14.6591097,1.7826369 L14.6591097,4.97578497 C12.8096541,5.74594442 11.0922615,6.46099681 9.17973672,7.25756173 C8.57140591,6.55934761 7.8403769,5.72049567 7.17834174,4.96086014 C6.09603657,6.03984875 5.13795855,6.99503781 4.00749147,8.12205376 C4.59327027,8.64614487 5.3244904,9.25882825 5.9960815,9.93121093 C6.16311923,10.0986369 6.26708781,10.5153841 6.17859985,10.7228009 C5.50987553,12.2897166 4.78591792,13.8332884 4.02450104,15.5039125 L0.0685351641,15.5039125 L0.0685351641,13.9524957 C0.817338212,13.9524957 1.5430159,13.9205412 2.26410673,13.9630196 C2.79885684,13.9944 3.05170688,13.8026733 3.22447818,13.2904456 C3.52816578,12.3903636 3.92244365,11.5208966 4.38246635,10.3816346 C3.52606348,9.65567563 2.56014959,8.83653212 1.65902495,8.07268702 C3.54154409,6.19254123 5.24899852,4.48747517 7.14948282,2.58972574 C7.70487375,3.218482 8.32925853,3.88895125 8.9106416,4.59481913 C9.37869128,5.16272802 9.82189554,5.36440456 10.5131719,4.892359 C10.9752969,4.5768328 11.542346,4.36271891 12.0927679,4.24159818 C12.8809414,4.06824055 13.0690022,3.63599453 13.0141511,2.89013576 C12.9491707,2.00478724 12.9988616,1.11082825 12.9988616,0.147028702 L20.4301298,0.147028702 C20.4301298,1.21702415 20.3903771,2.26310159 20.4566953,3.30267335 C20.4744694,3.57954806 20.7624852,3.93296036 21.0227889,4.0806779 C21.5154929,4.35984875 22.1431267,4.42241822 22.5977981,4.74196264 C23.5392488,5.40343872 24.1802609,5.13287836 24.8124815,4.30933394 C25.2759443,3.70545239 25.8275129,3.16949795 26.3060741,2.64043189 C28.1337422,4.49130205 29.8444456,6.22353895 31.6572065,8.05910159 C30.8346316,8.79730661 29.9138217,9.6233385 29.0570366,10.3921585 C29.5183971,11.5476847 29.8721578,12.5317667 30.3155532,13.4737531 C30.423153,13.7024091 30.8193421,13.9094433 31.0934063,13.9239854 C32.1019397,13.977179 33.1146776,13.9450333 34.192396,13.9450333 L34.192396,21.3714752 C33.3172634,21.3714752 32.4377352,21.4240948 31.5677629,21.3561677 C30.7497749,21.2922588 30.2996904,21.5015891 30.0864019,22.3764137 C29.8935631,23.1678123 29.4606793,23.9006597 29.0734728,24.7990196 C29.9440185,25.5929057 30.8783978,26.4451517 31.7646152,27.25358 C29.8983411,29.1178442 28.192989,30.8215708 26.2854333,32.7271654 C25.6478613,32.0174706 24.9414866,31.2545822 24.2645442,30.4666278 C23.9396424,30.0883408 23.6481864,30.0571517 23.199822,30.2861904 C22.4944029,30.6466825 21.7203721,30.8732337 21.019731,31.2411882 C20.7600007,31.3776164 20.4777184,31.7434661 20.4601355,32.0209148 C20.3943906,33.0601039 20.4337611,34.10599 20.4337611,35.1962679 L12.9958037,35.1962679 C12.9958037,34.2535162 12.946304,33.3358305 13.0112843,32.4263727 C13.0644153,31.6814706 12.8778835,31.2526688 12.0916212,31.0741449 C11.5110026,30.9423089 10.920828,30.709826 10.4243017,30.3853066 C9.79552116,29.9741084 9.41557719,30.1547371 8.97734202,30.6505093 C8.36690891,31.3410697 7.69914019,31.9807326 7.12826865,32.5679672 C5.35526051,30.7855982 3.63958798,29.0606323 1.96290367,27.3747007 C2.84625428,26.5014068 3.8800153,25.4798214 4.96327607,24.4092519 C5.22816658,24.6884228 5.55421507,25.0322679 6.02666049,25.5303362 C5.30155616,26.1116392 4.58791895,26.6837576 3.95569831,27.1906278 C5.0955302,28.3360128 6.04921249,29.2942633 7.12043278,30.3705731 C7.79813967,29.5879763 8.52611078,28.7474023 9.09048429,28.0953021 C10.9579051,28.795621 12.5864275,29.3862998 14.1918245,30.0338077 C14.3961304,30.116277 14.5880136,30.4907371 14.6012007,30.739867 C14.6497449,31.6529604 14.6205037,32.570072 14.6205037,33.5440128" id="Fill-3" fill="#C4CDD1" mask="url(#mask-2)"></path>
                    </g>
                    <path d="M67.6584071,36.1301604 C72.7763746,36.1644109 76.9460112,32.0803654 76.9941731,26.985641 C77.0427173,21.861641 72.8920014,17.6884292 67.7306499,17.6717822 C62.6849253,17.6553267 58.5124219,21.7868255 58.4938834,26.8178323 C58.4747715,31.9447025 62.5603159,36.0961011 67.6584071,36.1301604 M78.5743425,26.9716729 C78.5057309,33.0227344 73.6417601,37.8231718 67.6251524,37.7778232 C61.6484886,37.7328574 56.8544672,32.7906342 56.9156252,26.7374679 C56.9758276,20.7772948 61.8862402,15.9737959 67.8585084,16.0323472 C73.813958,16.0908984 78.6418074,21.0195362 78.5743425,26.9716729" id="Fill-6" fill="#C4CDD1"></path>
                    <path d="M43.0003686,83.8685467 C42.7995028,83.3056128 42.6437411,82.8689658 42.4619872,82.3596082 C51.3105917,78.9209658 57.8801057,73.013795 62.0497423,64.4381412 C61.5923953,64.6826788 61.1350482,64.9272164 60.5593987,65.2348975 C60.3036819,64.8166196 60.0493029,64.4000638 59.7328103,63.8820957 C61.4700793,62.8704601 63.1589952,61.8867608 64.9933524,60.8184875 C65.1984228,62.8983964 65.3876303,64.8191071 65.5869671,66.8408474 C65.0652131,66.9055216 64.6082483,66.9621595 64.0536218,67.0308519 C63.9546223,66.4401731 63.862312,65.8904419 63.7325424,65.1160729 C59.1716859,74.0432255 52.3487484,80.2395171 43.0003686,83.8685467" id="Fill-8" fill="#C4CDD1"></path>
                    <g id="Group-12" transform="translate(43.001706, 0.059891)">
                        <mask id="mask-4" fill="white">
                            <use xlink:href="#path-3"></use>
                        </mask>
                        <g id="Clip-11"></g>
                        <path d="M18.1936015,2.28129841 C17.4899025,2.04230979 16.9830557,1.87010023 16.3710936,1.66230068 C16.5121392,1.16671982 16.6443934,0.70098861 16.806462,0.131357631 C18.7520504,0.748250569 20.6122086,1.33797267 22.6082523,1.97074715 C21.1997075,3.51891116 19.8851931,4.96394077 18.5169744,6.46771298 C18.1079803,6.09516629 17.7632022,5.78117084 17.3643375,5.41780866 C17.7127469,4.98326651 18.038222,4.57761731 18.363506,4.17215945 C9.76412035,6.69369021 4.3086372,12.3337449 1.71572986,20.9076765 C1.25016472,20.790574 0.797786769,20.6767244 0.17665101,20.5205877 C2.91499967,11.2411708 8.86356906,5.25248747 18.1936015,2.28129841" id="Fill-10" fill="#C4CDD1" mask="url(#mask-4)"></path>
                    </g>
                    <path d="M30.1941546,65.6584182 C39.5255249,65.6234023 47.0391653,58.0396756 47.0070574,48.6888875 C46.9753317,39.4442952 39.3328773,31.8770241 30.0758522,31.9244774 C20.7580513,31.9719308 13.2826346,39.5753658 13.3328989,48.9538989 C13.3822075,58.1917941 20.9541391,65.6932428 30.1941546,65.6584182 M48.6028985,48.8700902 C48.5784353,59.0767599 40.280826,67.3108647 30.0613271,67.2697257 C19.8821543,67.2287781 11.6634771,58.9076118 11.6950116,48.674154 C11.7263551,38.5424911 20.0384894,30.3101084 30.2103997,30.3363226 C40.4333387,30.3629194 48.6275528,38.6199854 48.6028985,48.8700902" id="Fill-13" fill="#C4CDD1"></path>
                    <path d="M67.7759642,22.1050497 C65.0997291,22.0973959 62.9672267,24.1820884 62.9293852,26.8431089 C62.8913526,29.5188629 65.0668567,31.7116647 67.7553234,31.7074551 C70.38741,31.7034369 72.5575628,29.5399107 72.565972,26.9114187 C72.5743813,24.2745075 70.4197091,22.1127034 67.7759642,22.1050497 M74.1549329,26.9062524 C74.1656355,30.415118 71.3145268,33.3084301 67.80941,33.3455508 C64.2588068,33.3830542 61.3509359,30.5079198 61.3367931,26.9456692 C61.3226503,23.3679198 64.1703189,20.4746077 67.7228332,20.4573868 C71.2608225,20.4403572 74.143848,23.3307991 74.1549329,26.9062524" id="Fill-15" fill="#C4CDD1"></path>
                    <path d="M39.2092235,48.7639326 C39.1968008,43.7579918 35.1590361,39.7250351 30.151344,39.7168073 C25.192005,39.7085795 21.086011,43.8140556 21.0848643,48.7821103 C21.0839087,53.799723 25.2126458,57.915723 30.2165155,57.885682 C35.2093003,57.855641 39.2218373,53.7855636 39.2092235,48.7639326 M30.2933452,38.1209986 C36.2111445,38.2095909 40.9352164,43.05442 40.8560933,48.9537458 C40.7775435,54.8111672 35.9311556,59.5377458 30.0775722,59.4659918 C24.0061135,59.391559 19.3948016,54.5712219 19.4938011,48.4021011 C19.5847736,42.7291353 24.5162093,38.0345112 30.2933452,38.1209986" id="Fill-17" fill="#C4CDD1"></path>
                </g>
                <g id="Group-11-Copy" transform="translate(97.000000, 93.801967) rotate(40.000000) translate(-97.000000, -93.801967) translate(19.000000, 36.801967)" fill="#7D8B91">
                    <g id="Group-10" transform="translate(-0.000000, 0.000000)">
                        <g id="Group-9" transform="translate(0.000000, 0.000000)">
                            <path d="M148.431243,22.5597322 C148.431243,22.6341678 148.421317,22.7061014 148.409531,22.7774094 L140.749574,15.0536194 L148.409531,7.32982932 C148.421317,7.40113739 148.431243,7.47307098 148.431243,7.54750659 L148.431243,22.5597322 Z M147.190563,23.810751 L124.858327,23.810751 C124.713167,23.810751 124.574831,23.7807265 124.44518,23.7344388 L132.176477,15.9380897 L134.306103,18.0860889 C134.781284,18.5646036 135.402864,18.8041737 136.024445,18.8041737 C136.646646,18.8041737 137.268226,18.5646036 137.742166,18.0860889 L139.872413,15.9380897 L147.60495,23.7344388 C147.474058,23.7807265 147.336343,23.810751 147.190563,23.810751 L147.190563,23.810751 Z M123.617647,22.5597322 L123.617647,7.54750659 C123.617647,7.47307098 123.627572,7.40113739 123.639359,7.32982932 L131.299316,15.0536194 L123.639359,22.7774094 C123.627572,22.7061014 123.617647,22.6341678 123.617647,22.5597322 L123.617647,22.5597322 Z M124.858327,6.2964878 L147.190563,6.2964878 C147.336343,6.2964878 147.474058,6.32651225 147.60433,6.37342545 L136.865005,17.2016187 C136.640442,17.4280531 136.342059,17.5531549 136.024445,17.5531549 C135.706831,17.5531549 135.408447,17.4280531 135.183264,17.2016187 L124.44518,6.37342545 C124.574831,6.32651225 124.713167,6.2964878 124.858327,6.2964878 L124.858327,6.2964878 Z M147.190563,5.045469 L124.858327,5.045469 C123.487996,5.045469 122.376967,6.16575633 122.376967,7.54750659 L122.376967,22.5597322 C122.376967,23.9414824 123.487996,25.0617698 124.858327,25.0617698 L147.190563,25.0617698 C148.560894,25.0617698 149.671923,23.9414824 149.671923,22.5597322 L149.671923,7.54750659 C149.671923,6.16575633 148.560894,5.045469 147.190563,5.045469 L147.190563,5.045469 Z" id="Page-1" transform="translate(136.024445, 15.053619) rotate(-24.000000) translate(-136.024445, -15.053619) "></path>
                            <path d="M23.5814963,45.4395456 C22.7257994,45.4395456 21.8926209,45.2505281 21.1058438,44.8779519 C21.0321475,44.8431508 20.9557216,44.8158559 20.8786133,44.796067 C13.121387,40.8382985 6.69342491,34.4117012 2.73497397,26.6558396 C2.71313801,26.5760018 2.68516068,26.4968464 2.64899486,26.4217853 C2.27573635,25.6329611 2.08671878,24.800465 2.08671878,23.9447681 C2.08671878,20.6352547 4.98476069,18.14459 6.86333601,18.14459 C7.10899061,18.14459 7.27139559,18.2701468 7.34577435,18.345208 C7.3628337,18.3622673 7.39354052,18.3977507 7.4385772,18.4700824 C7.46246028,18.5082953 7.48907286,18.5458259 7.51636782,18.5819917 L12.0097999,24.358969 C12.044601,24.4040057 12.0821315,24.4456305 12.1223916,24.486573 C12.1967703,24.5602693 12.3223271,24.7233567 12.3223271,24.9683289 C12.3223271,25.0891091 12.2888908,25.2030655 12.2233829,25.3081511 L10.7023715,26.8175622 C10.6955478,26.8243859 10.688724,26.8305273 10.6819003,26.8380334 C10.1305422,27.3566375 9.8166502,28.0751772 9.8166502,28.8278356 C9.8166502,29.5334103 10.0902821,30.2048662 10.5658967,30.7084581 C10.5829561,30.7350707 10.6006978,30.7623656 10.6198043,30.7876135 C12.2970793,33.1056376 14.3578484,35.1589006 16.7461571,36.8914479 C16.7645811,36.904413 16.7830052,36.9173781 16.8021117,36.9296608 C17.306386,37.4134639 17.9826185,37.6918725 18.691605,37.6918725 C19.4040034,37.6918725 20.0911539,37.4073226 20.6008872,36.9057778 C20.6268174,36.8839418 20.6527476,36.8593763 20.677313,36.8341285 L22.2058305,35.2940106 C22.3129632,35.2278204 22.4276021,35.1930193 22.5470175,35.1930193 C22.7926721,35.1930193 22.9550771,35.3192585 23.0294558,35.3929548 C23.0697159,35.4332149 23.1120231,35.4707455 23.1563774,35.5062289 L28.9340371,39.9989786 C28.9708853,40.0276383 29.0097806,40.0542509 29.0493583,40.0794987 C29.1216899,40.1245354 29.1544439,40.1538775 29.1708208,40.1695721 C29.245882,40.2446332 29.3707564,40.4063558 29.3707564,40.6520104 C29.3707564,40.6984118 29.3734859,40.7441309 29.3782625,40.7898499 C29.2711298,42.6691076 26.8179957,45.4395456 23.5814963,45.4395456 M30.7457398,40.6520104 L30.7355042,40.6520104 C30.7355042,40.0870048 30.5062265,39.5759068 30.1363799,39.2046954 C30.0272001,39.0955156 29.9036904,39.0033951 29.7719922,38.9215102 L23.9950149,34.4280782 C23.6238035,34.0575491 23.1127054,33.8282715 22.5470175,33.8282715 C22.084368,33.8282715 21.6619786,33.9886294 21.3207916,34.2486138 L19.7083421,35.8726637 L19.7042479,35.8692518 C19.454499,36.1483427 19.0955704,36.3271247 18.691605,36.3271247 C18.2296379,36.3271247 17.8236254,36.0971647 17.5759237,35.7464245 C17.5677352,35.7593896 17.5561349,35.7723547 17.547264,35.7866846 C15.3172661,34.1680937 13.3411113,32.2205986 11.72525,29.9878713 C11.7409446,29.9776357 11.7552744,29.9653529 11.770969,29.9551173 C11.4154522,29.7060508 11.181398,29.2952618 11.181398,28.8278356 C11.181398,28.4102228 11.3717803,28.0403762 11.6658834,27.7885802 L11.6638363,27.7865331 L13.2680973,26.1938724 C13.5287642,25.8540502 13.6870749,25.4316608 13.6870749,24.9683289 C13.6870749,24.4033233 13.4577973,23.8915429 13.0872683,23.5210139 L8.59383619,17.7433542 C8.51195133,17.6130208 8.41983085,17.4888287 8.31065103,17.3796489 C7.94012201,17.0091199 7.42834159,16.7798423 6.86333601,16.7798423 C4.13384045,16.7798423 0.721971,19.9876819 0.721971,23.9447681 C0.721971,25.0406606 0.975814087,26.0758218 1.41526287,27.0045326 L1.39274453,27.0277333 C5.49858823,35.2039373 12.3223271,42.0276762 20.4992134,46.1335199 L20.5217318,46.1110015 C21.4504426,46.5518151 22.4849215,46.8042934 23.5814963,46.8042934 C27.5385825,46.8042934 30.7464221,43.392424 30.7464221,40.6629284 C30.7464221,40.6595165 30.7457398,40.656787 30.7457398,40.6520104" id="Page-1"></path>
                        </g>
                        <path d="M59.159703,108.015466 C59.159703,108.746052 58.5671753,109.336598 57.8385711,109.336598 L43.3061204,109.336598 L43.3061204,82.9139604 L51.2329117,82.9139604 L51.2329117,90.8407517 L53.8751755,88.1984879 L56.5174392,90.8407517 L56.5174392,82.9139604 L57.8385711,82.9139604 C58.5671753,82.9139604 59.159703,83.5058274 59.159703,84.2350922 L59.159703,108.015466 Z M41.9849885,109.336598 L39.3427247,109.336598 C38.6134599,109.336598 38.0215928,108.746052 38.0215928,108.015466 L38.0215928,84.2350922 C38.0215928,83.5058274 38.6134599,82.9139604 39.3427247,82.9139604 L41.9849885,82.9139604 L41.9849885,109.336598 Z M52.5540436,82.9139604 L55.1963073,82.9139604 L55.1963073,87.5379219 L53.8751755,86.2167901 L52.5540436,87.5379219 L52.5540436,82.9139604 Z M57.8385711,81.5928285 L39.3427247,81.5928285 C37.8835346,81.5928285 36.700461,82.7752415 36.700461,84.2350922 L36.700461,108.015466 C36.700461,109.475317 37.8835346,110.659051 39.3427247,110.659051 L57.8385711,110.659051 C59.2977613,110.659051 60.4808349,109.475317 60.4808349,108.015466 L60.4808349,84.2350922 C60.4808349,82.7752415 59.2977613,81.5928285 57.8385711,81.5928285 L57.8385711,81.5928285 Z" id="Page-1" transform="translate(48.590648, 96.125940) rotate(-19.000000) translate(-48.590648, -96.125940) "></path>
                    </g>
                    <path d="M145.092705,70.5384475 L134.174723,70.5384475 C133.839905,70.5384475 133.568168,70.807096 133.568168,71.1381094 C133.568168,71.4697224 133.839905,71.7377713 134.174723,71.7377713 L145.092705,71.7377713 C145.427523,71.7377713 145.69926,71.4697224 145.69926,71.1381094 C145.69926,70.807096 145.427523,70.5384475 145.092705,70.5384475 L145.092705,70.5384475 Z M133.568168,67.5401379 C133.568168,67.871751 133.839905,68.1397998 134.174723,68.1397998 L148.732033,68.1397998 C149.066851,68.1397998 149.338587,67.871751 149.338587,67.5401379 C149.338587,67.2091246 149.066851,66.940476 148.732033,66.940476 L134.174723,66.940476 C133.839905,66.940476 133.568168,67.2091246 133.568168,67.5401379 L133.568168,67.5401379 Z M151.158251,78.9337141 L137.207496,78.9337141 L131.748505,73.536757 L131.748505,57.3458856 L134.781278,57.3458856 L134.781278,59.1448713 C134.781278,59.4764843 135.053014,59.7445332 135.387832,59.7445332 C135.72265,59.7445332 135.994387,59.4764843 135.994387,59.1448713 L135.994387,57.3458856 L137.207496,57.3458856 L137.207496,59.1448713 C137.207496,59.4764843 137.479232,59.7445332 137.81405,59.7445332 C138.148868,59.7445332 138.420605,59.4764843 138.420605,59.1448713 L138.420605,57.3458856 L139.633714,57.3458856 L139.633714,59.1448713 C139.633714,59.4764843 139.905451,59.7445332 140.240269,59.7445332 C140.575087,59.7445332 140.846823,59.4764843 140.846823,59.1448713 L140.846823,57.3458856 L142.059932,57.3458856 L142.059932,59.1448713 C142.059932,59.4764843 142.331669,59.7445332 142.666487,59.7445332 C143.001305,59.7445332 143.273041,59.4764843 143.273041,59.1448713 L143.273041,57.3458856 L144.486151,57.3458856 L144.486151,59.1448713 C144.486151,59.4764843 144.757887,59.7445332 145.092705,59.7445332 C145.427523,59.7445332 145.69926,59.4764843 145.69926,59.1448713 L145.69926,57.3458856 L146.912369,57.3458856 L146.912369,59.1448713 C146.912369,59.4764843 147.184105,59.7445332 147.518923,59.7445332 C147.853742,59.7445332 148.125478,59.4764843 148.125478,59.1448713 L148.125478,57.3458856 L151.158251,57.3458856 L151.158251,78.9337141 Z M131.748505,78.9337141 L131.748505,75.3357427 L135.387832,78.9337141 L131.748505,78.9337141 Z M151.158251,56.1465618 L148.125478,56.1465618 L148.125478,54.3475761 C148.125478,54.0165627 147.853742,53.7479142 147.518923,53.7479142 C147.184105,53.7479142 146.912369,54.0165627 146.912369,54.3475761 L146.912369,56.1465618 L145.69926,56.1465618 L145.69926,54.3475761 C145.69926,54.0165627 145.427523,53.7479142 145.092705,53.7479142 C144.757887,53.7479142 144.486151,54.0165627 144.486151,54.3475761 L144.486151,56.1465618 L143.273041,56.1465618 L143.273041,54.3475761 C143.273041,54.0165627 143.001305,53.7479142 142.666487,53.7479142 C142.331669,53.7479142 142.059932,54.0165627 142.059932,54.3475761 L142.059932,56.1465618 L140.846823,56.1465618 L140.846823,54.3475761 C140.846823,54.0165627 140.575087,53.7479142 140.240269,53.7479142 C139.905451,53.7479142 139.633714,54.0165627 139.633714,54.3475761 L139.633714,56.1465618 L138.420605,56.1465618 L138.420605,54.3475761 C138.420605,54.0165627 138.148868,53.7479142 137.81405,53.7479142 C137.479232,53.7479142 137.207496,54.0165627 137.207496,54.3475761 L137.207496,56.1465618 L135.994387,56.1465618 L135.994387,54.3475761 C135.994387,54.0165627 135.72265,53.7479142 135.387832,53.7479142 C135.053014,53.7479142 134.781278,54.0165627 134.781278,54.3475761 L134.781278,56.1465618 L131.748505,56.1465618 C131.078868,56.1465618 130.535396,56.6838588 130.535396,57.3458856 L130.535396,78.9337141 C130.535396,79.5969402 131.078868,80.1330379 131.748505,80.1330379 L151.158251,80.1330379 C151.827887,80.1330379 152.37136,79.5969402 152.37136,78.9337141 L152.37136,57.3458856 C152.37136,56.6838588 151.827887,56.1465618 151.158251,56.1465618 L151.158251,56.1465618 Z M134.174723,64.5418284 L141.453378,64.5418284 C141.788196,64.5418284 142.059932,64.2737796 142.059932,63.9421665 C142.059932,63.6111532 141.788196,63.3425046 141.453378,63.3425046 L134.174723,63.3425046 C133.839905,63.3425046 133.568168,63.6111532 133.568168,63.9421665 C133.568168,64.2737796 133.839905,64.5418284 134.174723,64.5418284 L134.174723,64.5418284 Z" id="Page-1" transform="translate(141.453378, 66.940476) rotate(15.000000) translate(-141.453378, -66.940476) "></path>
                </g>
            </g>
        </g>
    </g>
</svg>