<svg width="137" height="89" viewBox="0 0 137 89" version="1.1" xmlns="http://www.w3.org/2000/svg" xmlns:xlink="http://www.w3.org/1999/xlink">
<g id="Canvas" transform="translate(-3706 -847)">
<g id="Group 7">
<g id="Group 8 Copy 2">
<g id="Group 4">
<g id="Group 2">
<g id="Page 1">
<g id="Fill 1">
<use xlink:href="#path0_fill" transform="translate(3748.43 859.053)" fill="#9E9E9E"/>
</g>
<g id="Fill 3">
<use xlink:href="#path1_fill" transform="translate(3727.02 847.011)" fill="#9E9E9E"/>
</g>
<g id="Fill 4">
<use xlink:href="#path2_fill" transform="translate(3744.86 875.723)" fill="#9E9E9E"/>
</g>
<g id="Fill 5">
<use xlink:href="#path3_fill" transform="translate(3792.67 847)" fill="#9E9E9E"/>
</g>
<g id="Fill 6">
<use xlink:href="#path4_fill" transform="translate(3727.04 887.071)" fill="#9E9E9E"/>
</g>
<g id="Fill 7">
<use xlink:href="#path5_fill" transform="translate(3727.03 895.861)" fill="#9E9E9E"/>
</g>
<g id="Fill 8">
<use xlink:href="#path6_fill" transform="translate(3727 904.658)" fill="#9E9E9E"/>
</g>
<g id="Fill 9">
<use xlink:href="#path7_fill" transform="translate(3727.01 913.319)" fill="#9E9E9E"/>
</g>
<g id="Fill 10">
<use xlink:href="#path8_fill" transform="translate(3734.91 914.204)" fill="#9E9E9E"/>
</g>
<g id="Fill 11">
<use xlink:href="#path9_fill" transform="translate(3784.03 847.013)" fill="#9E9E9E"/>
</g>
<g id="Fill 12">
<use xlink:href="#path10_fill" transform="translate(3775.32 847.012)" fill="#9E9E9E"/>
</g>
<g id="Fill 13">
<use xlink:href="#path11_fill" transform="translate(3792.97 855.545)" fill="#9E9E9E"/>
</g>
<g id="Fill 14">
<use xlink:href="#path12_fill" transform="translate(3743.62 914.213)" fill="#9E9E9E"/>
</g>
<g id="Fill 15">
<use xlink:href="#path13_fill" transform="translate(3780.98 906.285)" fill="#9E9E9E"/>
</g>
</g>
</g>
</g>
<g id="Fill 285">
<use xlink:href="#path14_fill" transform="translate(3726 930)" fill="#C4CDD0"/>
</g>
<g id="Fill 285">
<use xlink:href="#path14_fill" transform="translate(3820 854)" fill="#C4CDD0"/>
</g>
<g id="Fill 285">
<use xlink:href="#path15_fill" transform="translate(3831 861)" fill="#C4CDD0"/>
</g>
<g id="Group 6 Copy 2">
<g id="Fill 285">
<use xlink:href="#path14_fill" transform="translate(3808 922)" fill="#C4CDD0"/>
</g>
<g id="Fill 285">
<use xlink:href="#path15_fill" transform="translate(3819 929)" fill="#C4CDD0"/>
</g>
</g>
<g id="Group 6 Copy 3">
<g id="Fill 285">
<use xlink:href="#path14_fill" transform="translate(3706 927)" fill="#C4CDD0"/>
</g>
<g id="Fill 285">
<use xlink:href="#path15_fill" transform="translate(3717 934)" fill="#C4CDD0"/>
</g>
</g>
</g>
<g id="Fill 153">
<use xlink:href="#path16_fill" transform="translate(3768 868)" fill="#C4CDD0"/>
</g>
</g>
</g>
<defs>
<path id="path0_fill" fill-rule="evenodd" d="M 19.6963 65.9856L 51.8741 65.9856L 51.8741 64.4393L 19.6963 64.4393L 19.6963 65.9856ZM 24.1575 62.6407L 47.9223 62.6407L 47.9223 56.8629L 24.1575 56.8629L 24.1575 62.6407ZM 69.9239 55.047C 69.9239 52.2416 69.8912 49.5548 69.9428 46.8696C 69.9593 46.0177 69.6726 45.825 68.8728 45.8258C 46.8448 45.8449 24.8169 45.8406 2.78893 45.8426C 2.4389 45.8426 2.08906 45.8746 1.71191 45.8932L 1.71191 55.047L 69.9239 55.047ZM 1.70068 44.0744L 69.8501 44.0744L 69.8501 1.73425L 1.70068 1.73425L 1.70068 44.0744ZM 71.4919 56.7673L 49.7503 56.7673L 49.7503 62.6419L 53.5035 62.6419L 53.5035 67.6368L 18.0129 67.6368L 18.0129 62.7091L 22.3847 62.7091L 22.3847 56.7575L 0 56.7575L 0 0L 71.4919 0L 71.4919 56.7673Z"/>
<path id="path1_fill" fill-rule="evenodd" d="M 44.1948 0L 44.1948 10.8312L 42.5449 10.8312L 42.5449 1.62562L 1.6459 1.62562L 1.6459 26.8238L 19.8707 26.8238L 19.8707 28.499L 1.63898 28.499L 1.63898 33.4399L 20.0676 33.4399L 20.0676 35.1783L 15.3804 35.1783L 15.3804 38.1077L 20.0704 38.1077L 20.0704 39.807L 12.6801 39.807C 12.6787 39.9115 12.6771 40.0159 12.6757 40.1206L 20.0801 40.1206L 20.0801 41.7886L 10.9305 41.7886L 10.9305 38.1838L 13.5368 38.1838L 13.5368 35.2299L 0 35.2299L 0 0L 44.1948 0Z"/>
<path id="path2_fill" fill-rule="evenodd" d="M 2.56327 4.56972C 0.895211 4.45292 0.0231877 3.56776 0.000432379 2.34316C -0.0221251 1.12235 0.838224 0.222836 2.51559 0C 2.2447 0.748233 2.00607 1.35834 1.80819 1.9818C 1.74507 2.18052 1.73043 2.43485 1.79652 2.62798C 1.99993 3.22135 2.25321 3.79737 2.56327 4.56972"/>
<path id="path3_fill" fill-rule="evenodd" d="M 0.289487 3.95224C 0.18976 2.59131 0.0975511 1.33223 0 0L 1.86257 0L 1.86257 3.95224L 0.289487 3.95224Z"/>
<path id="path4_fill" fill-rule="evenodd" d="M 0 4.26756L 1.47692 4.26756L 1.47692 0L 0 0L 0 4.26756Z"/>
<path id="path5_fill" fill-rule="evenodd" d="M 0 4.26397L 1.50799 4.26397L 1.50799 0L 0 0L 0 4.26397Z"/>
<path id="path6_fill" fill-rule="evenodd" d="M 0 4.22192L 1.51511 4.22192L 1.51511 0L 0 0L 0 4.22192Z"/>
<path id="path7_fill" fill-rule="evenodd" d="M 3.38936 0.914069L 3.38936 2.42289L 0 2.42289L 0 0.0570089C 0.674349 0.106439 1.37818 -0.3484 1.77294 0.696415C 1.86178 0.931808 2.7896 0.845504 3.38936 0.914069"/>
<path id="path8_fill" fill-rule="evenodd" d="M 0 1.54689L 4.19885 1.54689L 4.19885 0L 0 0L 0 1.54689Z"/>
<path id="path9_fill" fill-rule="evenodd" d="M 0 1.50803L 4.22675 1.50803L 4.22675 0L 0 0L 0 1.50803Z"/>
<path id="path10_fill" fill-rule="evenodd" d="M 0 1.51002L 4.22833 1.51002L 4.22833 0L 0 0L 0 1.51002Z"/>
<path id="path11_fill" fill-rule="evenodd" d="M 0 2.565L 1.53569 2.565L 1.53569 0L 0 0L 0 2.565Z"/>
<path id="path12_fill" fill-rule="evenodd" d="M 1.98347 0C 2.19559 1.73963 2.08419 1.82135 0 1.4881L 0 0L 1.98347 0Z"/>
<path id="path13_fill" fill-rule="evenodd" d="M 4.7781 3.35621C 4.82737 2.49537 4.1639 1.73777 3.31384 1.68415C 2.46991 1.63093 1.70771 2.30781 1.64716 3.16407C 1.58899 3.98705 2.29381 4.7899 3.12487 4.8471C 3.95712 4.9045 4.72942 4.20809 4.7781 3.35621L 4.7781 3.35621ZM 3.19466 6.50325C 1.35306 6.48391 -0.019576 5.05781 0.000211224 3.18463C 0.0188112 1.41191 1.48366 -0.0259544 3.24373 0.000355392C 5.06 0.0274624 6.50566 1.52592 6.46213 3.33551C 6.41879 5.12418 4.9771 6.52198 3.19466 6.50325L 3.19466 6.50325Z"/>
<path id="path14_fill" fill-rule="evenodd" d="M 0 1.63359L 22.4931 1.63359L 22.4931 0L 0 0L 0 1.63359Z"/>
<path id="path15_fill" fill-rule="evenodd" d="M 0 1.63359L 11.4931 1.63359L 11.4931 0L 0 0L 0 1.63359Z"/>
<path id="path16_fill" fill-rule="evenodd" d="M 15.0001 11.3342C 15.2136 11.3342 15.4271 11.353 15.6374 11.3906L 19.4533 7.58277C 19.086 7.36191 18.7046 7.16925 18.3122 7.00634C 17.2542 6.56776 16.1428 6.34534 15.0064 6.34534C 13.4257 6.34534 11.8968 6.77139 10.5469 7.58277L 14.3628 11.3906C 14.5731 11.353 14.7866 11.3342 15.0001 11.3342L 15.0001 11.3342ZM 14.0377 12.5466L 8.90796 7.42614L 9.41654 7.06901C 11.0663 5.91146 12.9986 5.29901 15.0062 5.29901C 16.2808 5.29901 17.5287 5.54806 18.7138 6.0399C 19.3684 6.31089 19.9979 6.65705 20.5833 7.06901L 21.0935 7.42771L 15.9622 12.5466L 15.6702 12.4683C 15.2338 12.3524 14.7661 12.3524 14.3297 12.4683L 14.0377 12.5466ZM 14.9999 14.2587C 14.6075 14.2587 14.2888 14.5766 14.2888 14.9682C 14.2888 15.3583 14.6075 15.6762 14.9999 15.6762C 15.3907 15.6762 15.7094 15.3583 15.7094 14.9682C 15.7094 14.5766 15.3907 14.2587 14.9999 14.2587L 14.9999 14.2587ZM 15.0001 16.7241C 14.03 16.7241 13.2405 15.9363 13.2405 14.9682C 13.2405 14.0002 14.03 13.2123 15.0001 13.2123C 15.9702 13.2123 16.7597 14.0002 16.7597 14.9682C 16.7597 15.9363 15.9702 16.7241 15.0001 16.7241L 15.0001 16.7241ZM 7.59883 10.5229C 7.37751 10.8894 7.18443 11.2716 7.02118 11.6632C 5.96007 14.2133 6.18297 17.0656 7.59883 19.4105L 11.4148 15.6042C 11.3394 15.1828 11.3394 14.7521 11.4148 14.3307L 7.59883 10.5229ZM 7.44338 21.0473L 7.08392 20.5382C 5.1579 17.8065 4.77176 14.3385 6.05263 11.2606C 6.32419 10.6074 6.67109 9.9809 7.08392 9.39508L 7.44338 8.88757L 12.5731 14.0065L 12.4962 14.2994C 12.3785 14.7364 12.3785 15.1985 12.4947 15.6371L 12.5731 15.9284L 7.44338 21.0473ZM 18.5852 15.6042L 22.4011 19.412C 22.6225 19.0455 22.8155 18.6633 22.9788 18.2732C 24.0399 15.7216 23.817 12.8693 22.4011 10.5244L 18.5852 14.3323C 18.659 14.752 18.659 15.1828 18.5852 15.6042L 18.5852 15.6042ZM 22.5565 21.0489L 17.4268 15.9284L 17.5037 15.6371C 17.6214 15.1985 17.6214 14.7364 17.5037 14.2994L 17.4268 14.008L 22.5565 8.88757L 22.916 9.39664C 24.842 12.1284 25.2281 15.5963 23.9473 18.6742C 23.6757 19.3259 23.3288 19.954 22.916 20.5398L 22.5565 21.0489ZM 10.5452 22.3521C 10.9125 22.573 11.2955 22.7672 11.6879 22.9285C 12.7459 23.3671 13.8572 23.5895 14.9921 23.5895C 16.5744 23.5895 18.1032 23.1635 19.4516 22.3537L 15.6373 18.5458C 15.2166 18.6195 14.7818 18.6195 14.3627 18.5458L 10.5452 22.3521ZM 14.9922 24.6358C 13.7192 24.6358 12.4713 24.3868 11.2846 23.8965C 10.63 23.624 10.0021 23.2778 9.41508 22.8658L 8.90649 22.5087L 14.0378 17.3882L 14.3298 17.4666C 14.7662 17.5825 15.2324 17.5825 15.6703 17.4666L 15.9623 17.3882L 21.092 22.5087L 20.5819 22.8674C 18.9337 24.025 17.0014 24.6358 14.9922 24.6358L 14.9922 24.6358ZM 18.108 26.4481L 18.987 28.569L 21.7984 27.4083L 20.9193 25.289L 21.2976 25.0541C 22.8312 24.1017 24.1451 22.7938 25.0994 21.2697L 25.3333 20.8922L 27.4571 21.7725L 28.6234 18.9687L 26.5012 18.0884L 26.6016 17.6561C 27.0113 15.908 27.0113 14.055 26.6048 12.2976L 26.5043 11.8652L 28.6297 10.9896L 27.4681 8.18427L 25.3427 9.05987L 25.1073 8.68394C 24.1529 7.15203 22.8422 5.84098 21.3149 4.8902L 20.9382 4.65524L 21.8188 2.53751L 19.009 1.3737L 18.1284 3.49143L 17.6936 3.38961C 15.9371 2.98079 14.088 2.98079 12.3253 3.38805L 11.892 3.4883L 11.013 1.36743L 8.20167 2.52655L 9.07913 4.64741L 8.7024 4.8808C 7.16724 5.83315 5.85341 7.14264 4.9006 8.66671L 4.66515 9.04264L 2.54292 8.16391L 1.37664 10.9677L 3.49887 11.8464L 3.39841 12.2788C 2.98872 14.0284 2.98715 15.8798 3.39527 17.6373L 3.49573 18.0696L 1.37036 18.9452L 2.53194 21.7522L 4.6573 20.875L 4.89276 21.2525C 5.84556 22.7828 7.15782 24.0955 8.68514 25.0447L 9.06186 25.2796L 8.18127 27.3974L 10.991 28.5612L 11.8716 26.4434L 12.3049 26.5453C 14.0629 26.9541 15.912 26.9556 17.6748 26.5484L 18.108 26.4481ZM 18.4172 29.9365L 17.4754 27.6605C 15.8351 27.9801 14.1382 27.9801 12.5026 27.659L 11.5577 29.9302L 6.80933 27.9628L 7.75586 25.6916C 6.3761 24.7643 5.17371 23.5613 4.24288 22.1782L 1.96369 23.1196L 0 18.3782L 2.2792 17.4384C 1.96055 15.8031 1.96212 14.1052 2.28234 12.4761L 0.00470908 11.5332L 1.97625 6.79491L 4.25387 7.73786C 5.18313 6.36103 6.38866 5.16275 7.77313 4.2339L 6.83131 1.95796L 11.5828 0L 12.5246 2.27437C 14.1649 1.95483 15.8602 1.95483 17.4974 2.2775L 18.4423 0.00469911L 23.1907 1.97206L 22.2441 4.24486C 23.6239 5.17215 24.8263 6.37356 25.7571 7.75666L 28.0363 6.81684L 30 11.5582L 27.7192 12.4981C 28.0395 14.1318 28.0379 15.8297 27.7177 17.4588L 29.9937 18.4017L 28.0238 23.14L 25.7461 22.197C 24.8169 23.5739 23.6113 24.7737 22.2269 25.701L 23.1687 27.9769L 18.4172 29.9365Z"/>
</defs>
</svg>
