<svg width="27" height="27" viewBox="0 0 27 27" version="1.1" xmlns="http://www.w3.org/2000/svg" xmlns:xlink="http://www.w3.org/1999/xlink">
<g id="Canvas" transform="translate(-3665 -1290)">
<g id="Page 1">
<use xlink:href="#path0_fill" transform="translate(3665 1290)" fill="#FFFFFF"/>
</g>
</g>
<defs>
<path id="path0_fill" fill-rule="evenodd" d="M 23.3145 6.13636L 18.4091 6.13636C 18.0704 6.13636 17.7955 6.41127 17.7955 6.75C 17.7955 7.08934 18.0704 7.36364 18.4091 7.36364L 24.5455 7.36364C 24.8842 7.36364 25.1591 7.08934 25.1591 6.75L 25.1591 0.613636C 25.1591 0.274909 24.8842 0 24.5455 0C 24.2067 0 23.9318 0.274909 23.9318 0.613636L 23.9318 4.95205C 21.4576 1.93234 17.7083 0 13.5 0C 6.04432 0 0 6.04432 0 13.5C 0 13.8393 0.274909 14.1136 0.613636 14.1136C 0.952364 14.1136 1.22727 13.8393 1.22727 13.5C 1.22727 6.72239 6.72177 1.22727 13.5 1.22727C 17.5144 1.22727 21.0753 3.15716 23.3145 6.13636ZM 25.7726 13.5C 25.7726 20.2782 20.2781 25.7727 13.4999 25.7727C 9.4855 25.7727 5.92457 23.8434 3.68541 20.8636L 8.59082 20.8636C 8.92955 20.8636 9.20446 20.5893 9.20446 20.25C 9.20446 19.9113 8.92955 19.6364 8.59082 19.6364L 2.45446 19.6364C 2.11573 19.6364 1.84082 19.9113 1.84082 20.25L 1.84082 26.3864C 1.84082 26.7257 2.11573 27 2.45446 27C 2.79318 27 3.06809 26.7257 3.06809 26.3864L 3.06809 22.0492C 5.54227 25.0683 9.29159 27 13.4999 27C 20.9556 27 26.9999 20.9557 26.9999 13.5C 26.9999 13.1613 26.725 12.8864 26.3863 12.8864C 26.0475 12.8864 25.7726 13.1613 25.7726 13.5Z"/>
</defs>
</svg>
