<?xml version="1.0" encoding="utf-8"?>
<!-- Generator: Adobe Illustrator 19.2.1, SVG Export Plug-In . SVG Version: 6.00 Build 0)  -->
<svg version="1.1" id="Layer_1" xmlns="http://www.w3.org/2000/svg" xmlns:xlink="http://www.w3.org/1999/xlink" x="0px" y="0px"
	 viewBox="0 0 841.5 193.8" style="enable-background:new 0 0 841.5 193.8;" xml:space="preserve">
<metadata><?xpacket begin="﻿" id="W5M0MpCehiHzreSzNTczkc9d"?>
<x:xmpmeta xmlns:x="adobe:ns:meta/" x:xmptk="Adobe XMP Core 5.6-c111 79.158366, 2015/09/25-01:12:00        ">
   <rdf:RDF xmlns:rdf="http://www.w3.org/1999/02/22-rdf-syntax-ns#">
      <rdf:Description rdf:about=""/>
   </rdf:RDF>
</x:xmpmeta>
                                                                                                    
                                                                                                    
                                                                                                    
                                                                                                    
                                                                                                    
                                                                                                    
                                                                                                    
                                                                                                    
                                                                                                    
                                                                                                    
                                                                                                    
                                                                                                    
                                                                                                    
                                                                                                    
                                                                                                    
                                                                                                    
                                                                                                    
                                                                                                    
                                                                                                    
                                                                                                    
                           
<?xpacket end="w"?></metadata>
<style type="text/css">
	.st0{fill:#FE3702;}
	.st1{fill:#7D898F;}
</style>
<path class="st0" d="M49.8,7.3h26.3l49.8,144h-23.5l-12.7-38H36.3l-12.7,38H0L49.8,7.3z M40.8,96.7H85L67.3,43
	c-2.6-8-4.2-17.1-4.2-17.1h-0.4c0,0-1.6,9.1-4.2,17.1L40.8,96.7z"/>
<path class="st0" d="M178.9,41.6c-14.7,0-29.3,3.6-36.8,7.6v144.6h21.7v-44.2c3.6,1.2,11,2.6,17.5,2.6c32.5,0,49.8-22.9,49.8-55.7
	C231,62.5,212.3,41.6,178.9,41.6 M179.2,135.3c-5.8,0-12.7-1.2-15.5-2.4V61.5c3-1.4,9.6-2.8,15.5-2.8c19.5,0,30.1,14.5,30.1,37.8
	C209.3,119,199,135.3,179.2,135.3"/>
<rect x="254.5" y="44.1" class="st0" width="21.9" height="107.2"/>
<path class="st1" d="M345,42c-16.7,0-30.5,3.2-41.2,7.6v101.9h21.7V62.8c4.4-1.8,11.8-3.2,19.7-3.2c14.9,0,22.5,7.8,22.5,20.3v71.6
	h21.9V77.9C389.6,55.1,375,42,345,42"/>
<path class="st1" d="M454.9,42c-14.3,0-28.9,3.8-37.4,7.6l5.6,14.9c7.2-3.4,19.5-6.6,29.7-6.6c13.7,0,22.7,4.8,22.7,18.3V83
	c-32.5,1.8-64.3,7.2-64.3,37c0,21.1,15.5,33.6,46.4,33.6c15.1,0,30.9-3.4,38.6-7.6V78.3C496.1,51.9,480.6,42,454.9,42z M475.4,135.1
	c-3.4,1.6-11.6,2.8-18.5,2.8c-16.5,0-25.3-7-25.3-18.3c0-19.1,21.9-20.9,43.8-22.1V135.1z"/>
<path class="st1" d="M550.3,12.7L529,19.3v24.9h-14.5v16.3H529v60.9c0,20.9,10.5,31.4,29.5,31.4c5.6,0,11-1.2,13.5-2.4v-18.1
	c-1.8,0.8-4.8,1.4-7.4,1.4c-8,0-14.3-3.8-14.3-13.5V60.5H572V44.2h-21.7V12.7z"/>
<rect x="593.3" y="44.1" class="st1" width="21.9" height="107.2"/>
<path class="st0" d="M604.3,0c-7.2,0-12.9,5.6-12.9,12.3c0,6.8,5.8,12.3,12.9,12.3c7.2,0,12.9-5.6,12.9-12.3S611.5,0,604.3,0"/>
<path class="st1" d="M685.7,42c-30.5,0-47.2,23.9-47.2,55.7s16.7,55.9,47.2,55.9s47.2-24.1,47.2-55.9C732.9,65.8,716.2,42,685.7,42
	 M685.7,135.9c-16.9,0-25.3-15.3-25.3-38.4s8.4-38.2,25.3-38.2c16.9,0,25.3,15.1,25.3,38.2S702.7,135.9,685.7,135.9"/>
<path class="st1" d="M796.9,42c-16.7,0-30.5,3.2-41.2,7.6v101.9h21.7V62.8c4.4-1.8,11.7-3.2,19.7-3.2c14.9,0,22.5,7.8,22.5,20.3
	v71.6h21.9V77.9C841.5,55.1,826.9,42,796.9,42"/>
<path class="st1" d="M265.5,0c-7.2,0-12.9,5.6-12.9,12.3c0,6.8,5.8,12.3,12.9,12.3c7.2,0,12.9-5.6,12.9-12.3S272.7,0,265.5,0"/>
</svg>
