<?xml version="1.0" encoding="utf-8"?>
<!-- Generator: Adobe Illustrator 18.1.1, SVG Export Plug-In . SVG Version: 6.00 Build 0)  -->
<svg version="1.1" id="Layer_1" xmlns="http://www.w3.org/2000/svg" xmlns:xlink="http://www.w3.org/1999/xlink" x="0px" y="0px"
	 viewBox="0 0 64 64" enable-background="new 0 0 64 64" xml:space="preserve">
<g>
	<g>
		<path fill="#FFFFFF" d="M13,9c0-1.1,0.9-2,2-2h11c1.1,0,2,0.9,2,2v46c0,1.1-0.9,2-2,2H15c-1.1,0-2-0.9-2-2V9z"/>
	</g>
	<g>
		<path fill="#FFFFFF" d="M36,9c0-1.1,0.9-2,2-2h11c1.1,0,2,0.9,2,2v46c0,1.1-0.9,2-2,2H38c-1.1,0-2-0.9-2-2V9z"/>
	</g>
</g>
</svg>
