<?xml version="1.0" encoding="utf-8"?>
<!-- Generator: Adobe Illustrator 18.1.1, SVG Export Plug-In . SVG Version: 6.00 Build 0)  -->
<svg version="1.1" id="Layer_1" xmlns="http://www.w3.org/2000/svg" xmlns:xlink="http://www.w3.org/1999/xlink" x="0px" y="0px"
	 viewBox="0 0 64 64" enable-background="new 0 0 64 64" xml:space="preserve">
<path fill="#444444" d="M55.9,26.3h-5.5c-0.3-1.1-0.8-2.3-1.4-3.4l3.9-3.9c0.5-0.5,0.5-1.1,0-1.6L46.4,11c-0.5-0.5-1.1-0.5-1.6,0
	l-3.8,4c-1-0.6-2.2-1-3.4-1.4V8.1c0-0.7-0.5-1.1-1.1-1.1h-9.1c-0.7,0-1.1,0.5-1.1,1.1v5.5c-1.1,0.3-2.3,0.8-3.4,1.4L19,11.1
	c-0.5-0.5-1.1-0.5-1.6,0L11,17.6c-0.5,0.5-0.5,1.1,0,1.6l4,3.8c-0.6,1-1,2.2-1.4,3.4H8.1c-0.7,0-1.1,0.5-1.1,1.1v9.1
	c0,0.7,0.5,1.1,1.1,1.1h5.5c0.3,1.1,0.8,2.3,1.4,3.4L11.1,45c-0.5,0.5-0.5,1.1,0,1.6l6.5,6.5c0.5,0.5,1.1,0.5,1.6,0l3.8-4
	c1,0.6,2.2,1,3.4,1.4v5.5c0,0.7,0.5,1.1,1.1,1.1h9.1c0.7,0,1.1-0.5,1.1-1.1v-5.5c1.1-0.3,2.3-0.8,3.4-1.4l3.9,3.9
	c0.5,0.5,1.1,0.5,1.6,0l6.5-6.5c0.5-0.5,0.5-1.1,0-1.6l-4-3.8c0.6-1,1-2.2,1.4-3.4h5.5c0.7,0,1.1-0.5,1.1-1.1v-9.1
	C57,26.8,56.5,26.3,55.9,26.3z M32,42.2c-5.7,0-10.2-4.5-10.2-10.2S26.3,21.8,32,21.8S42.2,26.3,42.2,32S37.7,42.2,32,42.2z"/>
</svg>
