<svg width="24" height="16" viewBox="0 0 24 16" version="1.1" xmlns="http://www.w3.org/2000/svg" xmlns:xlink="http://www.w3.org/1999/xlink">
<g id="Canvas" transform="translate(1404 419)">
<g id="icn_eye">
<g id="Fill 12">
<use xlink:href="#path0_fill" transform="translate(-1403.92 -419)" fill="#000000"/>
</g>
</g>
</g>
<defs>
<path id="path0_fill" fill-rule="evenodd" d="M 13.9189 8L 15.9189 8C 15.9189 10.206 14.1249 12 11.9189 12C 9.71294 12 7.91895 10.206 7.91895 8C 7.91895 5.794 9.71294 4 11.9189 4L 11.9189 6C 10.8159 6 9.91895 6.897 9.91895 8C 9.91895 9.103 10.8159 10 11.9189 10C 13.0219 10 13.9189 9.103 13.9189 8ZM 11.919 14C 5.67201 14 2.77201 9.404 2.03101 8C 2.77401 6.593 5.67401 2 11.919 2C 18.164 2 21.065 6.593 21.807 8C 21.065 9.407 18.164 14 11.919 14ZM 11.919 0C 3.358 0 0.133 7.296 0 7.606L 0 8.394C 0.133 8.704 3.358 16 11.919 16C 20.48 16 23.705 8.704 23.838 8.394L 23.838 7.606C 23.705 7.296 20.48 0 11.919 0Z"/>
</defs>
</svg>
