<?xml version="1.0" encoding="utf-8"?>
<!-- Generator: Adobe Illustrator 18.1.1, SVG Export Plug-In . SVG Version: 6.00 Build 0)  -->
<svg version="1.1" id="Layer_1" xmlns="http://www.w3.org/2000/svg" xmlns:xlink="http://www.w3.org/1999/xlink" x="0px" y="0px"
	 viewBox="0 0 64 64" enable-background="new 0 0 64 64" xml:space="preserve">
<g>
	<g>
		<g>
			<path fill="#444444" d="M8,17c0-0.5,0.4-1,1-1h6c0.6,0,1,0.5,1,1v1c0,0.5-0.4,1-1,1H9c-0.6,0-1-0.5-1-1V17z"/>
		</g>
		<g>
			<path fill="#444444" d="M8,25c0-0.5,0.4-1,1-1h6c0.6,0,1,0.5,1,1v1c0,0.5-0.4,1-1,1H9c-0.6,0-1-0.5-1-1V25z"/>
		</g>
		<g>
			<path fill="#444444" d="M8,33c0-0.5,0.4-1,1-1h6c0.6,0,1,0.5,1,1v1c0,0.5-0.4,1-1,1H9c-0.6,0-1-0.5-1-1V33z"/>
		</g>
		<g>
			<path fill="#444444" d="M8,41c0-0.5,0.4-1,1-1h6c0.6,0,1,0.5,1,1v1c0,0.5-0.4,1-1,1H9c-0.6,0-1-0.5-1-1V41z"/>
		</g>
		<g>
			<path fill="#444444" d="M8,49c0-0.5,0.4-1,1-1h2c0.6,0,1.4,0,2,0h2c0.6,0,1,0.5,1,1v1c0,0.5-0.4,1-1,1H9c-0.6,0-1-0.5-1-1V49z"/>
		</g>
		<g>
			<path fill="#444444" d="M18,17c0-0.5,0.5-1,1-1h36c0.5,0,1,0.5,1,1v1c0,0.5-0.5,1-1,1H19c-0.5,0-1-0.5-1-1V17z"/>
		</g>
		<g>
			<path fill="#444444" d="M18,33c0-0.5,0.5-1,1-1h30c0.5,0,1,0.5,1,1v1c0,0.5-0.5,1-1,1H19c-0.5,0-1-0.5-1-1V33z"/>
		</g>
		<g>
			<path fill="#444444" d="M18,25c0-0.5,0.5-1,1-1h26c0.5,0,1,0.5,1,1v1c0,0.5-0.5,1-1,1H19c-0.5,0-1-0.5-1-1V25z"/>
		</g>
		<g>
			<path fill="#444444" d="M18,41c0-0.5,0.5-1,1-1h22c0.5,0,1,0.5,1,1v1c0,0.5-0.5,1-1,1H19c-0.5,0-1-0.5-1-1V41z"/>
		</g>
		<g>
			<path fill="#444444" d="M18,49c0-0.5,0.5-1,1-1h34c0.5,0,1,0.5,1,1v1c0,0.5-0.5,1-1,1H19c-0.5,0-1-0.5-1-1V49z"/>
		</g>
	</g>
</g>
</svg>
