<?xml version="1.0" encoding="utf-8"?>
<!-- Generator: Adobe Illustrator 18.1.1, SVG Export Plug-In . SVG Version: 6.00 Build 0)  -->
<svg version="1.1" id="Layer_1" xmlns="http://www.w3.org/2000/svg" xmlns:xlink="http://www.w3.org/1999/xlink" x="0px" y="0px"
	 viewBox="0 0 64 64" enable-background="new 0 0 64 64" xml:space="preserve">
<g>
	<g>
		<path fill="#444444" d="M45.2,18H18.8c-1,0-1.8,0.8-1.8,1.7v32.6c0,1,0.8,1.7,1.8,1.7h26.5c1,0,1.8-0.8,1.8-1.7V19.7
			C47,18.8,46.2,18,45.2,18z M25.8,48.9c0,0.5-0.5,0.9-0.9,0.9s-0.9-0.5-0.9-0.9v-24c0-0.4,0.5-0.9,0.9-0.9c0.5,0,0.9,0.5,0.9,0.9
			V48.9z M32.9,48.9c0,0.5-0.5,0.9-0.9,0.9s-0.9-0.5-0.9-0.9v-24c0-0.4,0.4-0.9,0.9-0.9s0.9,0.5,0.9,0.9V48.9z M39.9,48.9
			c0,0.5-0.4,0.9-0.9,0.9s-0.9-0.5-0.9-0.9v-24c0-0.4,0.5-0.9,0.9-0.9s0.9,0.5,0.9,0.9V48.9z"/>
	</g>
	<path fill="#444444" d="M47,13H36c0-2-0.9-3-2-3h-4c-1.2,0-2,1-2,3H17c-1.3,0-2,1.5-2,4h34C49,14.5,48.3,13,47,13z"/>
</g>
</svg>
