<?xml version="1.0" encoding="utf-8"?>
<!-- Generator: Adobe Illustrator 18.1.1, SVG Export Plug-In . SVG Version: 6.00 Build 0)  -->
<svg version="1.1" id="Layer_1" xmlns="http://www.w3.org/2000/svg" xmlns:xlink="http://www.w3.org/1999/xlink" x="0px" y="0px"
	 viewBox="0 0 64 64" enable-background="new 0 0 64 64" xml:space="preserve">
<g>
	<path d="M36.5,40.7v-2.6c1.2-0.5,1.9-2.8,2.4-4.7c0.5-0.3,1.1-1,1.3-1.9c0.4-1.3,0.1-2.3-0.6-2.7c0.7-1.2,0.9-3.2,0.9-5
		c0-3.4-1.7-6.1-3.8-6.1c-0.2,0-0.4,0-0.6,0c-0.3-0.4-0.6-0.7-1-1c-1-0.7-4.2-0.6-4.7-0.5c-4.8,0.7-6.8,2.9-7.1,7.3
		c-0.1,1.5,0.5,3.8,1.1,5.3c-0.8,0.3-1.3,1.4-0.9,2.8c0.3,1,0.9,1.7,1.5,1.9c0.5,1.8,0.6,3.7,2.4,4.9v3.2c0,0-0.2,1.8-1.6,2.3
		c-3.1,1.4-10.3,3.2-10.5,5c0,0.3,3.7,2.6,4.8,3.3c2.6,1.7,6,3.1,11.7,3.1c4.9,0,9.3-2.2,12.1-3.2c0.5-0.2,4.2-3.1,4.2-3.5
		c-0.4-1.5-8.5-3.7-10.1-4.6C36.2,42.8,36.5,41.2,36.5,40.7z"/>
	<circle fill="none" stroke="#000000" stroke-width="1.8" stroke-miterlimit="10" cx="32" cy="32" r="23.4"/>
</g>
</svg>
