<?xml version="1.0" encoding="utf-8"?>
<!-- Generator: Adobe Illustrator 18.1.1, SVG Export Plug-In . SVG Version: 6.00 Build 0)  -->
<svg version="1.1" id="Layer_1" xmlns="http://www.w3.org/2000/svg" xmlns:xlink="http://www.w3.org/1999/xlink" x="0px" y="0px"
	 viewBox="0 0 64 64" enable-background="new 0 0 64 64" xml:space="preserve">
<path display="none" fill="none" stroke="#fe3702" stroke-miterlimit="10" d="M50,20c0,0-7.9,2.4-11.5,12"/>
<path display="none" fill="none" stroke="#fe3702" stroke-miterlimit="10" d="M41,43c-14.5-2.2-19.7-11.5-19.7-11.5"/>
<path display="none" fill="none" stroke="#fe3702" stroke-miterlimit="10" d="M24.5,30.1c3.1,7.9,2.8,10.4,6.3,10.4
	c2.2,0,7.2,0,7.2,0c8,0,8.1,0,8.1,0"/>
<circle fill="#FFFFFF" cx="41.3" cy="17" r="4"/>
<circle fill="#FFFFFF" cx="49" cy="47" r="4"/>
<circle fill="#FFFFFF" cx="60" cy="32.2" r="4"/>
<circle fill="#FFFFFF" cx="4" cy="32.2" r="4"/>
<rect x="7" y="30.7" fill="#FFFFFF" width="50" height="3"/>
<path fill="#fe3702" d="M16.6,30.7"/>
<path fill="none" stroke="#FFFFFF" stroke-width="3.0723" stroke-miterlimit="10" d="M18.9,31.3c0,0,0,0,1.3-2.5
	C25.5,18.7,26.7,17,32,17c3.5,0,9.3,0,9.3,0"/>
<path fill="none" stroke="#FFFFFF" stroke-width="3.0615" stroke-miterlimit="10" d="M49.5,47.3c0,0-5.9,0-9.3,0
	c-5.3,0-6.5-1.8-11.8-12.1c-1.3-2.6-1.3-2.6-1.3-2.6"/>
</svg>
